<mxfile host="app.diagrams.net" agent="Mozilla/5.0 (X11; Linux x86_64) AppleWebKit/537.36 (KHTML, like Gecko) Chrome/133.0.0.0 Safari/537.36" version="26.0.4">
  <diagram name="PÃ¡gina-1" id="Hw1fYavdUJovEWWX5bEd">
    <mxGraphModel dx="1434" dy="786" grid="1" gridSize="10" guides="1" tooltips="1" connect="1" arrows="1" fold="1" page="1" pageScale="1" pageWidth="827" pageHeight="1169" math="0" shadow="0">
      <root>
        <mxCell id="0" />
        <mxCell id="1" parent="0" />
        <mxCell id="oVXyLTGLwYNCEvE__72y-2" value="VPC - Virtual Private Cloud" style="text;html=1;align=center;verticalAlign=middle;resizable=0;points=[];autosize=1;strokeColor=#6c8ebf;fillColor=#dae8fc;" vertex="1" parent="1">
          <mxGeometry x="80" y="70" width="170" height="30" as="geometry" />
        </mxCell>
        <mxCell id="oVXyLTGLwYNCEvE__72y-3" value="" style="whiteSpace=wrap;html=1;aspect=fixed;fillColor=#d5e8d4;strokeColor=#82b366;" vertex="1" parent="1">
          <mxGeometry x="60" y="120" width="560" height="560" as="geometry" />
        </mxCell>
        <mxCell id="oVXyLTGLwYNCEvE__72y-5" value="subnet 1: AZ A" style="rounded=0;whiteSpace=wrap;html=1;" vertex="1" parent="1">
          <mxGeometry x="100" y="150" width="190" height="80" as="geometry" />
        </mxCell>
        <mxCell id="oVXyLTGLwYNCEvE__72y-6" value="subnet 2: AZ B" style="rounded=0;whiteSpace=wrap;html=1;" vertex="1" parent="1">
          <mxGeometry x="380" y="150" width="190" height="80" as="geometry" />
        </mxCell>
        <mxCell id="oVXyLTGLwYNCEvE__72y-7" value="AZ: Zona de disponibilidade" style="text;html=1;align=center;verticalAlign=middle;resizable=0;points=[];autosize=1;strokeColor=#6c8ebf;fillColor=#dae8fc;" vertex="1" parent="1">
          <mxGeometry x="345" y="28" width="170" height="30" as="geometry" />
        </mxCell>
        <mxCell id="oVXyLTGLwYNCEvE__72y-8" value="route table&lt;div&gt;IG (Internet Gateway) - Public&lt;/div&gt;" style="rounded=0;whiteSpace=wrap;html=1;" vertex="1" parent="1">
          <mxGeometry x="230" y="210" width="190" height="80" as="geometry" />
        </mxCell>
        <mxCell id="oVXyLTGLwYNCEvE__72y-9" value="&lt;div&gt;Security Group&lt;/div&gt;&lt;div&gt;Ingress - Egress&lt;/div&gt;" style="rounded=0;whiteSpace=wrap;html=1;" vertex="1" parent="1">
          <mxGeometry x="230" y="320" width="190" height="80" as="geometry" />
        </mxCell>
      </root>
    </mxGraphModel>
  </diagram>
</mxfile>
